<svg xmlns="http://www.w3.org/2000/svg" width="500" height="357" viewBox="0 0 500 357" version="1.1"><path d="M 265.654 55.706 C 271.796 67.837, 264.550 80.542, 250.097 82.987 L 245.500 83.765 249.500 83.860 C 259.883 84.109, 269.040 74.905, 268.978 64.282 C 268.956 60.513, 266.063 52.775, 264.259 51.660 C 263.736 51.337, 264.364 53.158, 265.654 55.706 M 220.500 109.503 C 206.794 111.684, 190.407 115.268, 186.500 116.938 C 185.400 117.409, 181.575 118.785, 178 119.996 C 161.168 125.699, 140.929 140.330, 132.968 152.549 C 128.474 159.446, 124.963 167.761, 125.066 171.261 C 125.102 172.492, 125.785 171.071, 126.583 168.102 C 131.627 149.345, 152.984 130.623, 180.694 120.668 C 194.427 115.734, 223.968 109.569, 238 108.708 C 242.308 108.443, 241.875 108.355, 236 108.300 C 231.875 108.261, 224.900 108.802, 220.500 109.503 M 266 109.003 C 278.610 110.050, 298.660 113.423, 305.315 115.617 C 307.963 116.490, 310.359 116.975, 310.639 116.694 C 311.333 116, 302.645 113.600, 290 110.994 C 283.851 109.726, 274.528 108.685, 267.500 108.480 L 255.500 108.131 266 109.003 M 265.611 122 C 267.778 126.469, 268.444 127.168, 267.517 124 C 267.115 122.625, 266.139 120.825, 265.349 120 C 264.308 118.912, 264.379 119.461, 265.611 122 M 268.175 130.167 C 267.761 138.841, 261.877 146.587, 254 148.825 C 252.075 149.372, 251.258 149.860, 252.185 149.910 C 260.078 150.332, 269.516 139.364, 268.729 130.684 C 268.351 126.512, 268.349 126.511, 268.175 130.167 M 399.473 143.788 C 399.853 144.496, 401.715 147.421, 403.610 150.288 C 411.185 161.749, 413.371 178.364, 409.023 191.430 C 405.676 201.487, 398.132 212.014, 388.305 220.338 C 357.633 246.320, 307.431 261.250, 246 262.659 C 234.175 262.930, 224.050 263.307, 223.500 263.497 C 222.950 263.687, 231.817 263.878, 243.205 263.921 C 296.612 264.125, 344.721 252.343, 376.827 231.199 C 387.048 224.468, 402.335 210.168, 405.297 204.567 C 411.486 192.868, 412.178 190.131, 412.201 177.262 L 412.222 165.024 408.081 156.762 C 405.803 152.218, 402.778 147.150, 401.360 145.500 C 399.941 143.850, 399.092 143.080, 399.473 143.788 M 263.500 153.466 C 257.444 155.078, 251.625 155.885, 245.710 155.931 C 238.903 155.984, 236.008 156.465, 232.879 158.062 C 226.673 161.228, 214.021 161.350, 207.783 158.304 C 203.562 156.242, 201.633 156, 189.434 156 C 173.215 156, 170.632 156.890, 165.040 164.404 C 159.307 172.108, 158.906 173.320, 158.795 183.299 C 158.640 197.300, 160.869 201.958, 169.441 205.540 C 172.683 206.894, 175.342 207.054, 184.927 206.473 C 196.738 205.756, 201.246 204.612, 204.302 201.556 C 205.931 199.926, 206.255 199.945, 210.328 201.917 C 212.994 203.207, 216.606 204, 219.822 204 C 225.627 204, 243.011 206.392, 250.180 208.177 C 257.088 209.897, 272.400 206.178, 278.134 201.388 C 282.765 197.519, 288.113 196.896, 294.346 199.500 C 296.656 200.465, 301.222 201, 307.152 201 C 314.673 201, 317.208 200.588, 320.934 198.759 L 325.500 196.519 322 196.009 L 318.500 195.500 318.850 188.316 C 319.369 177.644, 317.953 177.097, 315.495 187.019 L 313.394 195.500 309.985 195.500 C 307.034 195.500, 306.471 195.096, 305.804 192.500 C 305.380 190.850, 304.469 187.475, 303.779 185 L 302.525 180.500 302.012 188 L 301.500 195.500 297.806 195.807 L 294.113 196.114 293.806 183.307 C 293.638 176.263, 293.640 168.813, 293.810 166.750 L 294.121 163 299.438 163 C 302.496 163, 305.177 163.531, 305.747 164.250 C 306.293 164.938, 307.331 168.537, 308.053 172.250 C 308.776 175.963, 309.714 179, 310.138 179 C 310.562 179, 311.188 177.313, 311.528 175.250 C 311.868 173.188, 312.676 169.700, 313.323 167.500 L 314.500 163.500 320.250 163.316 L 326 163.132 326 177.507 C 326 185.413, 326.389 192.122, 326.864 192.416 C 327.339 192.709, 329.139 189.887, 330.864 186.145 C 336.037 174.921, 334.877 164.440, 327.803 158.488 C 326.177 157.119, 323.643 155.727, 322.173 155.393 C 320.703 155.060, 317.670 153.935, 315.434 152.893 C 309.928 150.329, 305.213 150.513, 299.572 153.513 L 294.845 156.026 291.673 153.763 C 286.978 150.414, 275.418 150.292, 263.500 153.466 M 242.557 163.072 C 234.981 164.371, 231.492 172.542, 236.043 178.328 C 237.252 179.865, 240.296 181.621, 243.501 182.632 C 248.820 184.309, 250.961 186.439, 249.148 188.252 C 248.644 188.756, 247.212 189.019, 245.967 188.835 C 244.072 188.554, 243.117 187.592, 241.317 184.151 C 241.217 183.959, 239.258 184.119, 236.963 184.506 C 232.924 185.189, 232.811 185.310, 233.398 188.355 C 234.416 193.642, 238.379 195.989, 246.295 195.995 C 252.150 195.999, 253.425 195.666, 255.505 193.586 C 258.458 190.633, 259.430 187.106, 258.563 182.486 C 257.797 178.404, 254.904 176.174, 248.151 174.461 C 243.283 173.226, 241.417 170.545, 244.582 169.330 C 245.717 168.894, 246.914 169.411, 248.066 170.833 C 250.485 173.821, 258 173.989, 258 171.056 C 258 165.706, 250.327 161.739, 242.557 163.072 M 173.250 163.662 C 172.323 164.036, 172 168.292, 172 180.114 L 172 196.062 184.250 195.781 L 196.500 195.500 196.500 192 L 196.500 188.500 189.341 188.208 C 182.010 187.909, 180.339 186.887, 181.638 183.500 C 182.067 182.383, 183.847 182, 188.607 182 L 195 182 195 178.500 L 195 175 188.500 175 C 182.667 175, 182 174.795, 182 173 C 182 171.193, 182.667 171, 188.893 171 C 196.375 171, 197.568 170.112, 196.391 165.421 C 195.794 163.043, 195.594 163.001, 185.142 163.079 C 179.289 163.122, 173.938 163.385, 173.250 163.662 M 203.750 163.689 C 202.175 164.101, 202 165.749, 202 180.128 L 202 196.110 206.750 195.805 L 211.500 195.500 211.798 189.250 C 211.961 185.813, 212.450 183, 212.884 183 C 213.318 183, 215.205 185.925, 217.076 189.500 L 220.479 196 225.239 196 C 230.990 196, 231.124 195.339, 226.972 187.446 L 223.943 181.689 226.011 179.488 C 227.149 178.277, 228.344 175.656, 228.667 173.663 C 229.445 168.873, 227.135 165.409, 222.259 164.055 C 218.550 163.025, 207.154 162.800, 203.750 163.689 M 264 179.630 L 264 196.062 276.250 195.781 L 288.500 195.500 288.808 191.793 L 289.116 188.086 281.308 187.793 C 273.724 187.508, 273.500 187.428, 273.500 185 C 273.500 182.609, 273.796 182.487, 280.250 182.204 L 287 181.909 287 178.454 L 287 175 279.927 175 C 273.730 175, 272.895 174.783, 273.186 173.250 C 273.457 171.825, 274.909 171.407, 281.009 171 C 285.129 170.725, 288.387 170.162, 288.250 169.750 C 288.113 169.338, 288 167.635, 288 165.968 L 288 162.935 276 163.067 L 264 163.199 264 179.630 M 211.923 170.750 C 211.881 171.162, 211.705 172.227, 211.532 173.116 C 210.963 176.028, 212.534 177.261, 215.875 176.527 C 218.277 176, 219 175.306, 219 173.528 C 219 172.255, 218.288 170.941, 217.418 170.607 C 215.221 169.764, 212.016 169.847, 211.923 170.750 M 125.160 181.500 C 125.122 183.150, 125.740 185.850, 126.535 187.500 C 127.701 189.920, 127.852 190.017, 127.317 188 C 126.952 186.625, 126.333 183.925, 125.942 182 C 125.248 178.590, 125.228 178.577, 125.160 181.500 M 300 216.906 C 300 217.405, 298.988 217.591, 297.750 217.320 C 295.988 216.933, 295.819 217.050, 296.971 217.859 C 298.847 219.175, 299.074 219.022, 288.713 223.422 C 273.192 230.014, 253.826 234.911, 231 238.015 C 220.460 239.448, 219.220 240.021, 227.899 239.447 C 235.892 238.919, 247.366 237.063, 258.500 234.497 C 265.133 232.968, 291.591 224.204, 300.750 220.501 C 305.452 218.600, 306.463 216, 302.500 216 C 301.125 216, 300 216.408, 300 216.906 M 153.500 235.890 C 154.600 236.338, 157.525 236.980, 160 237.316 C 162.687 237.680, 163.694 237.597, 162.500 237.110 C 161.400 236.662, 158.475 236.020, 156 235.684 C 153.313 235.320, 152.306 235.403, 153.500 235.890 M 136.205 237.114 C 136.409 237.727, 138.584 239.361, 141.038 240.745 L 145.500 243.261 142.500 240.550 C 140.850 239.059, 140.175 238.058, 141 238.324 C 141.825 238.590, 143.400 239.104, 144.500 239.465 C 145.600 239.827, 144.925 239.214, 143 238.103 C 139.152 235.883, 135.623 235.369, 136.205 237.114 M 173.500 239.462 C 178.636 240.353, 188.302 240.810, 200.500 240.737 L 219.500 240.625 198.500 239.936 C 186.950 239.558, 174.800 238.984, 171.500 238.661 C 166.585 238.180, 166.946 238.325, 173.500 239.462 M 178.500 256 C 179.600 256.473, 181.175 256.859, 182 256.859 C 182.945 256.859, 182.761 256.542, 181.500 256 C 180.400 255.527, 178.825 255.141, 178 255.141 C 177.055 255.141, 177.239 255.458, 178.500 256 M 196 259.936 C 200.675 260.982, 208.325 262.063, 213 262.338 C 217.675 262.613, 220.150 262.630, 218.500 262.376 C 211.214 261.252, 195.152 258.955, 191.500 258.515 C 189.300 258.250, 191.325 258.890, 196 259.936" stroke="none" fill="#ffffff" fill-rule="evenodd"/><path d="M 239.329 164.458 C 235.261 166.227, 233.745 169.130, 234.454 173.788 C 235.073 177.848, 237.797 180.712, 241.876 181.590 C 248.634 183.046, 251.432 185.996, 248.674 188.755 C 247.368 190.061, 246.608 190.143, 244.537 189.199 C 243.142 188.563, 242 187.358, 242 186.521 C 242 185.384, 240.860 185, 237.481 185 C 233.069 185, 232.976 185.065, 233.577 187.750 C 233.916 189.262, 235.507 191.738, 237.112 193.250 C 239.625 195.617, 240.863 196, 246 196 C 251.182 196, 252.399 195.615, 255.234 193.082 C 258.001 190.610, 258.500 189.480, 258.500 185.687 C 258.500 179.908, 256.311 177.494, 249.098 175.317 C 242.225 173.242, 241.313 172.533, 242.965 170.542 C 244.749 168.393, 247.725 168.618, 249 171 C 249.738 172.379, 251.094 173, 253.369 173 C 257.624 173, 258.059 172.466, 256.783 168.807 C 254.972 163.612, 246.262 161.442, 239.329 164.458 M 172.105 179.500 L 171.856 195 183.812 195 C 195.762 195, 195.767 194.999, 196.244 192.506 C 196.910 189.020, 195.381 188.151, 187.962 187.803 C 181.817 187.515, 181.500 187.377, 181.500 185 C 181.500 182.609, 181.796 182.487, 188.250 182.204 L 195 181.909 195 178.500 L 195 175.091 188.260 174.796 C 182.849 174.558, 181.457 174.164, 181.196 172.795 C 180.917 171.335, 181.921 171.048, 188.185 170.795 L 195.500 170.500 195.813 167.250 L 196.127 164 184.240 164 L 172.354 164 172.105 179.500 M 202.500 179.500 L 202.500 195 206.750 195 L 211 195 211 188.927 C 211 183.683, 211.239 182.899, 212.750 183.184 C 213.729 183.369, 215.725 186.046, 217.279 189.257 L 220.058 195 225.029 195 C 227.763 195, 230 194.757, 230 194.460 C 230 193.377, 225.724 185.452, 224.213 183.733 C 222.790 182.115, 222.884 181.730, 225.329 179.178 C 227.310 177.111, 227.996 175.372, 227.985 172.445 C 227.957 165.330, 225.489 164, 212.316 164 L 202.500 164 202.500 179.500 M 264.078 179.500 L 263.886 195 269.193 195.083 C 272.112 195.128, 277.537 195.241, 281.249 195.333 C 287.985 195.500, 287.998 195.495, 287.999 192.750 C 287.999 191.238, 288.113 189.662, 288.250 189.250 C 288.387 188.838, 285.125 188.275, 281 188 C 273.704 187.514, 273.491 187.425, 273.184 184.750 L 272.867 182 279.934 182 L 287 182 287 178.500 L 287 175 280 175 C 273.667 175, 273 174.810, 273 173 C 273 171.178, 273.667 171, 280.500 171 L 288 171 288 167.500 L 288 164 276.135 164 L 264.271 164 264.078 179.500 M 294 179.500 C 294 188.025, 294.337 195.054, 294.750 195.119 C 300.520 196.034, 300.466 196.108, 301 186.500 C 301.576 176.128, 302.793 176.654, 305.052 188.250 C 305.775 191.963, 306.734 195.050, 307.183 195.111 C 307.633 195.172, 308.900 195.222, 310 195.222 C 311.100 195.222, 312.364 195.172, 312.809 195.111 C 313.254 195.050, 314.438 190.960, 315.441 186.022 C 316.443 181.085, 317.654 177.286, 318.132 177.581 C 318.609 177.877, 319 181.865, 319 186.446 L 319 194.773 322.006 195.214 C 323.659 195.457, 325.234 195.433, 325.506 195.161 C 325.778 194.889, 326 187.767, 326 179.333 L 326 164 320.071 164 L 314.142 164 312.987 169.750 C 311.144 178.932, 310.830 180, 309.975 180 C 309.531 180, 308.390 176.400, 307.439 172 L 305.711 164 299.855 164 L 294 164 294 179.500 M 211.187 173.250 C 211.454 176.019, 211.937 176.550, 214.451 176.836 C 218.111 177.252, 220.431 174.674, 218.926 171.862 C 218.243 170.586, 216.819 170, 214.401 170 C 211.023 170, 210.887 170.138, 211.187 173.250" stroke="none" fill="#0c0c0c" fill-rule="evenodd"/><path d="M 238.310 49.467 C 230.906 55.804, 229.018 64.275, 233.121 72.750 C 239.809 86.565, 259.626 85.839, 266.120 71.541 C 268.650 65.972, 268.452 61.300, 265.429 55.234 C 261.886 48.123, 258.181 46, 249.312 46 C 242.825 46, 242.089 46.232, 238.310 49.467 M 224.500 91.067 C 189.991 93.073, 149.505 105.839, 124.133 122.713 C 114.604 129.052, 99.309 143.750, 94.223 151.458 C 86.686 162.881, 84.740 179.951, 89.527 192.668 C 92.400 200.302, 95.356 204.683, 101.680 210.682 C 113.384 221.785, 132.212 230.485, 155.529 235.564 C 168.744 238.443, 174.593 239.026, 196 239.603 C 222.952 240.330, 242.984 237.675, 271.213 229.635 C 278.346 227.604, 296.298 220.686, 297.917 219.345 C 299.765 217.814, 295.421 218.360, 285.366 220.924 C 244.641 231.305, 194.189 232.207, 167.491 223.031 C 140.657 213.807, 124.755 196.474, 124.833 176.531 C 124.867 168.069, 127.050 161.633, 132.968 152.549 C 140.929 140.330, 161.168 125.699, 178 119.996 C 181.575 118.785, 185.400 117.409, 186.500 116.938 C 189.105 115.825, 194.321 114.545, 206 112.153 C 224.517 108.362, 232.707 107.741, 257.082 108.281 C 281.889 108.832, 295.236 110.800, 309.629 116.031 C 312.858 117.205, 317.075 118.628, 319 119.195 C 323.570 120.540, 337.880 128.165, 345.328 133.223 C 353.263 138.612, 364.735 150.381, 368.944 157.452 C 378.248 173.082, 375.704 193.314, 362.324 210.103 C 358.644 214.719, 348.947 223.234, 342.397 227.598 C 328.639 236.767, 302.211 246.239, 276 251.396 C 234.016 259.657, 191.391 256.208, 149.031 241.121 C 144.373 239.463, 140.409 238.257, 140.223 238.444 C 139.402 239.265, 146.321 243.129, 156 247.255 C 167.006 251.946, 182.027 256.685, 190.500 258.140 C 215.294 262.397, 216.537 262.500, 242 262.396 C 263.604 262.308, 270.327 261.897, 286 259.706 C 361.608 249.136, 411.538 215.992, 411.188 176.605 C 411.031 158.956, 402.239 143.422, 383.928 128.441 C 378.651 124.124, 359.120 112, 357.441 112 C 357.226 112, 354.226 110.712, 350.775 109.137 C 319.106 94.686, 273.793 88.202, 224.500 91.067 M 242.500 113.569 C 232.226 118.902, 228.279 129.747, 233.035 139.573 C 235.262 144.173, 240.712 148.442, 245.666 149.467 C 253.233 151.033, 262.892 145.751, 266.085 138.301 C 269.158 131.132, 268.492 125.755, 263.648 118.633 C 259.735 112.881, 248.849 110.274, 242.500 113.569 M 179.250 163.739 C 182.412 163.937, 187.588 163.937, 190.750 163.739 C 193.912 163.541, 191.325 163.378, 185 163.378 C 178.675 163.378, 176.088 163.541, 179.250 163.739 M 208.776 163.733 C 211.128 163.945, 214.728 163.942, 216.776 163.727 C 218.824 163.512, 216.900 163.339, 212.500 163.343 C 208.100 163.346, 206.424 163.522, 208.776 163.733 M 272.750 163.737 C 275.637 163.939, 280.363 163.939, 283.250 163.737 C 286.137 163.535, 283.775 163.370, 278 163.370 C 272.225 163.370, 269.863 163.535, 272.750 163.737 M 296.768 163.725 C 298.565 163.947, 301.265 163.943, 302.768 163.715 C 304.271 163.486, 302.800 163.304, 299.500 163.310 C 296.200 163.315, 294.971 163.502, 296.768 163.725 M 202.395 179.500 C 202.396 187.200, 202.553 190.218, 202.743 186.206 C 202.934 182.195, 202.932 175.895, 202.741 172.206 C 202.549 168.518, 202.393 171.800, 202.395 179.500 M 228.232 172 C 228.232 173.925, 228.438 174.713, 228.689 173.750 C 228.941 172.787, 228.941 171.213, 228.689 170.250 C 228.438 169.287, 228.232 170.075, 228.232 172 M 224.988 179.513 C 223.039 181.588, 222.859 182.242, 223.960 183.263 C 225.026 184.252, 225.143 184.235, 224.542 183.176 C 224.086 182.373, 224.687 180.897, 226.070 179.426 C 227.323 178.092, 228.124 177, 227.849 177 C 227.574 177, 226.286 178.131, 224.988 179.513 M 300.829 186.658 C 300.648 191.695, 300.837 195.605, 301.250 195.349 C 301.663 195.092, 302.007 191.646, 302.015 187.691 C 302.026 182.679, 302.324 180.955, 303 182 C 303.533 182.825, 303.976 183.024, 303.985 182.441 C 303.993 181.859, 303.360 180.509, 302.579 179.441 C 301.306 177.703, 301.123 178.457, 300.829 186.658 M 211.185 188.695 L 211 194.890 206.250 195.265 L 201.500 195.640 206.281 195.820 C 211.887 196.031, 212.267 195.478, 211.742 187.881 L 211.370 182.500 211.185 188.695 M 196.079 192.719 C 196.002 194.869, 195.614 194.948, 183.750 195.253 L 171.500 195.568 183.781 195.784 C 193.794 195.960, 196.167 195.729, 196.626 194.533 C 196.935 193.726, 196.957 192.489, 196.673 191.783 C 196.390 191.077, 196.122 191.499, 196.079 192.719 M 318.316 193.500 C 318.460 194.932, 319.299 195.535, 321.271 195.622 C 323.680 195.728, 323.718 195.689, 321.574 195.311 C 320.226 195.074, 318.896 194.119, 318.619 193.190 C 318.255 191.970, 318.171 192.057, 318.316 193.500 M 222.250 195.716 C 223.762 195.945, 226.238 195.945, 227.750 195.716 C 229.262 195.487, 228.025 195.300, 225 195.300 C 221.975 195.300, 220.738 195.487, 222.250 195.716 M 266.250 195.716 C 267.762 195.945, 270.238 195.945, 271.750 195.716 C 273.262 195.487, 272.025 195.300, 269 195.300 C 265.975 195.300, 264.738 195.487, 266.250 195.716 M 278.768 195.725 C 280.565 195.947, 283.265 195.943, 284.768 195.715 C 286.271 195.486, 284.800 195.304, 281.500 195.310 C 278.200 195.315, 276.971 195.502, 278.768 195.725" stroke="none" fill="#e82629" fill-rule="evenodd"/></svg>